<?xml version="1.0" encoding="utf-8"?>
<!-- Svg Vector Icons : http://www.onlinewebfonts.com/icon -->
<!DOCTYPE svg PUBLIC "-//W3C//DTD SVG 1.1//EN" "http://www.w3.org/Graphics/SVG/1.1/DTD/svg11.dtd">
<svg version="1.1" xmlns="http://www.w3.org/2000/svg" xmlns:xlink="http://www.w3.org/1999/xlink" x="0px" y="0px" viewBox="0 0 1000 1000" enable-background="new 0 0 1000 1000" xml:space="preserve">
<metadata> Svg Vector Icons : http://www.onlinewebfonts.com/icon </metadata>
<g><g><path d="M338,934.6V803c0-10.5,8.5-19,19-19h292.2v0.1H663c86.9,0,157.6-70.7,157.6-157.6c0-86.9-70.7-157.6-157.6-157.6l-353.7-0.3l136.8,136.2c7.1,7.1,7.1,19.5,0,26.6l-85,85c-3.5,3.5-8.3,5.5-13.3,5.5c-5,0-9.8-2-13.3-5.5l-319-319c-7.4-7.4-7.4-19.3,0-26.6l318.9-319c7.4-7.3,19.3-7.3,26.6,0l85,85c3.5,3.5,5.5,8.3,5.5,13.3c0,5-2,9.8-5.5,13.3L309.3,299.2l353.7,0.2c180.3,0,327,146.7,327,327c0,180.3-146.7,327-327,327L357,953.6C346.6,953.6,338,945.1,338,934.6z"/></g><g></g><g></g><g></g><g></g><g></g><g></g><g></g><g></g><g></g><g></g><g></g><g></g><g></g><g></g><g></g></g>
</svg>